<?xml version="1.0" encoding="UTF-8"?>
<svg version="1.1" xmlns="http://www.w3.org/2000/svg" width="100" height="100" viewBox="0 0 307 332">
<path d="M0 0 C101.31 0 202.62 0 307 0 C307 109.56 307 219.12 307 332 C205.69 332 104.38 332 0 332 C0 222.44 0 112.88 0 0 Z " fill="#FDFDFD" transform="translate(0,0)"/>
<path d="M0 0 C1.54356323 1.22738173 3.06274236 2.48654019 4.546875 3.78515625 C6.43440759 5.47363508 6.43440759 5.47363508 9.421875 5.17578125 C10.99925046 3.99509064 10.99925046 3.99509064 12.546875 2.42578125 C19.61359522 -3.92076366 27.94815786 -6.19687762 37.2734375 -6.109375 C49.36097062 -5.01459843 58.2189226 -0.14496207 65.9609375 8.9921875 C73.54688974 18.54002394 74.30759663 27.37413898 73.421875 39.17578125 C72.2242056 45.37241859 69.61058759 49.59553421 66.421875 55.17578125 C60.151875 55.17578125 53.881875 55.17578125 47.421875 55.17578125 C49.071875 53.52578125 50.721875 51.87578125 52.421875 50.17578125 C57.61076973 44.61625118 60.46080846 39.36418766 60.859375 31.73828125 C60.60632144 24.76123312 57.32905624 18.08296249 52.421875 13.17578125 C50.14234085 11.67906768 47.84879727 10.43591397 45.421875 9.17578125 C45.504375 10.24828125 45.586875 11.32078125 45.671875 12.42578125 C45.68393943 19.18186305 43.1136468 25.4439317 40.359375 31.51953125 C37.10331678 34.30293586 33.35340242 33.59143432 29.234375 33.42578125 C27.9669043 33.39871094 27.9669043 33.39871094 26.67382812 33.37109375 C24.58935927 33.32398711 22.50547356 33.25224358 20.421875 33.17578125 C21.20175781 32.40234375 21.98164063 31.62890625 22.78515625 30.83203125 C28.4840567 25.09091672 31.45740777 20.51757791 32.046875 12.36328125 C32.12164062 11.38746094 32.19640625 10.41164063 32.2734375 9.40625 C32.34691406 8.30216797 32.34691406 8.30216797 32.421875 7.17578125 C22.42165269 10.65158667 17.68112545 15.12577235 12.421875 24.17578125 C11.82632813 25.20058594 11.82632813 25.20058594 11.21875 26.24609375 C10.27712426 27.88399204 9.34811458 29.52913311 8.421875 31.17578125 C5.52029225 28.63252649 3.98993265 25.74028086 2.171875 22.36328125 C-2.51490905 14.24475155 -6.82971322 10.24293259 -15.85546875 7.62109375 C-16.42394531 7.47414063 -16.99242187 7.3271875 -17.578125 7.17578125 C-15.96885417 20.08307312 -15.96885417 20.08307312 -8.328125 30.11328125 C-7.420625 30.79390625 -6.513125 31.47453125 -5.578125 32.17578125 C-5.578125 32.50578125 -5.578125 32.83578125 -5.578125 33.17578125 C-11.518125 33.17578125 -17.458125 33.17578125 -23.578125 33.17578125 C-27.88360352 24.56482422 -29.87345087 18.55907363 -30.578125 9.17578125 C-37.73344568 14.22966066 -42.77990757 18.1846941 -44.578125 27.17578125 C-45.37339786 34.79365815 -44.01575605 41.63728457 -39.640625 47.98828125 C-37.65976078 50.08919785 -35.61989796 52.13400829 -33.578125 54.17578125 C-39.518125 54.17578125 -45.458125 54.17578125 -51.578125 54.17578125 C-57.59784996 42.61157277 -60.8448335 32.95176269 -57.015625 20.05078125 C-53.26589279 9.91601553 -46.10672596 2.27134017 -36.625 -2.88671875 C-24.93600193 -8.17217875 -10.52685193 -7.44854523 0 0 Z " fill="#2D5991" transform="translate(145.578125,56.82421875)"/>
<path d="M0 0 C4.62 0 9.24 0 14 0 C16.99886475 3.8045299 18.91759515 6.60491812 20.92382812 10.83740234 C23.0263611 15.0625015 25.53023326 19.06856032 27.9375 23.125 C28.88889848 24.74981243 29.8358288 26.37725306 30.77734375 28.0078125 C31.38437134 29.05412842 31.38437134 29.05412842 32.00366211 30.12158203 C33 32 33 32 34 35 C34.33 23.78 34.66 12.56 35 1 C38.96 1 42.92 1 47 1 C47 19.15 47 37.3 47 56 C42.38 56 37.76 56 33 56 C29.53091248 51.94795287 27.65963127 49.16674698 25.4375 44.5 C24.31156017 42.34356082 23.18526505 40.1873071 22.05859375 38.03125 C21.58736084 37.06767578 21.11612793 36.10410156 20.63061523 35.11132812 C18.62845952 31.29107474 16.28594653 27.65751445 14 24 C13.67 34.56 13.34 45.12 13 56 C8.71 56 4.42 56 0 56 C0 37.52 0 19.04 0 0 Z " fill="#2C5890" transform="translate(164,124)"/>
<path d="M0 0 C4.95 0 9.9 0 15 0 C15.33 6.6 15.66 13.2 16 20 C18.43997632 17.41896724 20.87704577 14.83529393 23.3125 12.25 C24.00279297 11.52039063 24.69308594 10.79078125 25.40429688 10.0390625 C26.07138672 9.33007812 26.73847656 8.62109375 27.42578125 7.890625 C28.03848877 7.24125977 28.65119629 6.59189453 29.2824707 5.92285156 C31.05945828 4.03090647 31.05945828 4.03090647 32.4453125 1.78125 C34 0 34 0 36.0847168 -0.45410156 C36.86500244 -0.4331543 37.64528809 -0.41220703 38.44921875 -0.390625 C39.29677734 -0.37773438 40.14433594 -0.36484375 41.01757812 -0.3515625 C41.89865234 -0.31804687 42.77972656 -0.28453125 43.6875 -0.25 C44.58017578 -0.23195313 45.47285156 -0.21390625 46.39257812 -0.1953125 C48.59613504 -0.14817759 50.79752601 -0.08240657 53 0 C48.64352638 5.24785864 44.01498175 10.04376875 39.06054688 14.72460938 C35.31001272 18.25564206 35.31001272 18.25564206 34 23 C35.18698507 25.77441362 35.18698507 25.77441362 37.04296875 28.6484375 C37.70490234 29.73640625 38.36683594 30.824375 39.04882812 31.9453125 C39.76153754 33.08865464 40.47442966 34.23188292 41.1875 35.375 C41.87392578 36.4990625 42.56035156 37.623125 43.26757812 38.78125 C45.84831193 42.99205193 48.43245818 47.17485716 51.23168945 51.24462891 C53 54 53 54 53 56 C39.81208054 57.3590604 39.81208054 57.3590604 35.984375 54.48828125 C34.4306766 52.07290529 33.2417948 49.59052192 32 47 C30.43382413 44.44038544 28.77629774 41.94276366 27.125 39.4375 C26.3340322 38.20825515 25.54481567 36.97788065 24.7578125 35.74609375 C24.17773438 34.83988281 23.59765625 33.93367188 23 33 C21.85373678 33.97866338 20.70800212 34.95794587 19.5625 35.9375 C18.92441406 36.48277344 18.28632812 37.02804688 17.62890625 37.58984375 C14.97106733 39.73501057 14.97106733 39.73501057 14.68359375 43.59765625 C14.59684854 45.08567019 14.51504043 46.57397802 14.4375 48.0625 C14.39431641 48.82111328 14.35113281 49.57972656 14.30664062 50.36132812 C14.20026367 52.24065438 14.09960066 54.12030244 14 56 C9.38 56 4.76 56 0 56 C0 37.52 0 19.04 0 0 Z " fill="#315C93" transform="translate(105,124)"/>
<path d="M0 0 C4.62 0 9.24 0 14 0 C14.33 6.93 14.66 13.86 15 21 C16.299375 19.576875 17.59875 18.15375 18.9375 16.6875 C19.77410156 15.78644531 20.61070312 14.88539063 21.47265625 13.95703125 C24.05479943 11.08641726 24.05479943 11.08641726 25.93359375 7.88671875 C28.09443427 4.53458989 29.73515274 2.32214964 33 0 C39.25149509 -1.32459568 45.69751131 -0.63473691 52 0 C47.82510559 4.92992851 43.53785703 9.72013587 39.125 14.4375 C38.53203125 15.07365234 37.9390625 15.70980469 37.328125 16.36523438 C35.88666272 17.91131892 34.44351133 19.45582838 33 21 C37.1551696 29.76865672 42.14044625 37.91077091 47.26757812 46.13671875 C47.87666016 47.12285156 48.48574219 48.10898438 49.11328125 49.125 C49.66798096 50.01445312 50.22268066 50.90390625 50.79418945 51.8203125 C52 54 52 54 52 56 C46.83048258 57.43356365 41.95002591 58.39521034 37 56 C31.87057501 50.76604 23 39.61073532 23 32 C19.58475435 33.85932508 17.21283059 35.78133733 15 39 C13.67990685 44.53439258 13.89823389 50.34562045 14 56 C9.38 56 4.76 56 0 56 C0 37.52 0 19.04 0 0 Z " fill="#2D5991" transform="translate(249,124)"/>
<path d="M0 0 C13.53 0 27.06 0 41 0 C41 3.63 41 7.26 41 11 C32.09 11 23.18 11 14 11 C14 14.3 14 17.6 14 21 C22.58 21 31.16 21 40 21 C40 24.63 40 28.26 40 32 C31.42 32 22.84 32 14 32 C14 36.29 14 40.58 14 45 C23.9 45 33.8 45 44 45 C44 48.63 44 52.26 44 56 C29.48 56 14.96 56 0 56 C0 37.52 0 19.04 0 0 Z " fill="#2F5B92" transform="translate(54,124)"/>
<path d="M0 0 C5.58492632 4.33139576 9.27209731 9.15822034 10.34765625 16.3125 C10.79960777 23.72914028 8.46903005 30.01633363 3.578125 35.6328125 C-1.62821864 40.30732533 -7.65329438 42.69082071 -14.6015625 42.40625 C-21.15249239 41.29664624 -26.4286094 38.2303996 -30.5 33 C-34.19557082 27.40444645 -35.78256956 22.80330637 -35 16 C-33.59804956 9.43632296 -30.02473421 4.38027932 -25 0 C-17.40592042 -4.6245006 -7.6360166 -4.40120713 0 0 Z " fill="#FEFDFB" transform="translate(97,200)"/>
<path d="M0 0 C14.19 0 28.38 0 43 0 C43 3.63 43 7.26 43 11 C38.05 11 33.1 11 28 11 C28 25.85 28 40.7 28 56 C23.71 56 19.42 56 15 56 C15 41.15 15 26.3 15 11 C10.05 11 5.1 11 0 11 C0 7.37 0 3.74 0 0 Z " fill="#2C5890" transform="translate(4,124)"/>
<path d="M0 0 C19.47 0 38.94 0 59 0 C59 5.61 59 11.22 59 17 C39.53 17 20.06 17 0 17 C0 11.39 0 5.78 0 0 Z " fill="#D39101" transform="translate(124,95)"/>
<path d="M0 0 C6.40287374 4.18649437 10.59494461 10.78483384 13 18 C13.93887173 28.25063231 12.19681862 35.35177925 5.6875 43.3125 C0.75506484 48.62598165 -4.60386869 51.63663413 -11.8828125 52.23828125 C-21.19058891 52.45135083 -28.69840583 51.30193694 -35.8125 44.9375 C-41.05290822 39.11344442 -44.23233487 32.23293015 -44.5625 24.375 C-44.05908322 15.06178964 -39.60091701 8.34205752 -33 2 C-22.76951035 -5.93384912 -11.22305463 -5.99750538 0 0 Z M-34.3671875 11.66796875 C-37.9446688 16.77743367 -39.04638832 22.86486004 -38 29 C-35.11683681 37.64948957 -30.30225383 42.00898502 -22.5625 46.375 C-15.25092862 48.15831009 -9.80934124 47.11550462 -3.23046875 43.484375 C2.13292535 39.91504092 5.05689194 35.13613072 7 29 C7.91304704 22.19668607 7.13226135 16.57509003 3 11 C-2.40073513 5.17410061 -7.33396795 2.0448792 -15.375 1.6875 C-24.06311179 1.97855902 -28.84439969 4.9648204 -34.3671875 11.66796875 Z " fill="#D5960B" transform="translate(100,195)"/>
<path d="M0 0 C2.93834955 2.08423215 5.64677925 4.26244234 8 7 C8 7.66 8 8.32 8 9 C5.5 10.625 5.5 10.625 3 12 C2.319375 11.2575 1.63875 10.515 0.9375 9.75 C-4.04168211 4.89529744 -7.96927411 2.75450699 -14.9375 2.5 C-20.40873583 2.71857621 -24.67854226 3.52550948 -29 7 C-35.04345472 13.57242231 -36.43460266 18.82326054 -36.3359375 27.703125 C-35.73935377 33.55796993 -33.31812735 36.94345123 -28.9921875 40.78125 C-24.19026015 44.5377393 -20.54325737 46.38158714 -14.25390625 46.27734375 C-8.76318813 45.60170946 -3.76621425 43.26444534 -0.0625 39.125 C2.3832985 35.71226495 2.3832985 35.71226495 4 30 C-1.28 30 -6.56 30 -12 30 C-12 28.02 -12 26.04 -12 24 C-4.74 24 2.52 24 10 24 C10 37.69450549 10 37.69450549 4 45 C-2.81317647 51.49309435 -10.43282795 52.46092903 -19.5859375 52.31640625 C-24.17933672 51.8907022 -27.28257207 50.66647284 -31 48 C-31.55171875 47.61457031 -32.1034375 47.22914063 -32.671875 46.83203125 C-37.75487254 42.94429304 -40.99785162 38.02348469 -43 32 C-43.99648447 22.82185355 -43.70299666 14.6132237 -38 7 C-27.48601827 -4.83965769 -14.04838846 -7.20162558 0 0 Z " fill="#D4950B" transform="translate(254,195)"/>
<path d="M0 0 C4.62 0 9.24 0 14 0 C14 18.48 14 36.96 14 56 C9.38 56 4.76 56 0 56 C0 37.52 0 19.04 0 0 Z " fill="#2C5890" transform="translate(223,124)"/>
<path d="M0 0 C9.24 0 18.48 0 28 0 C28 1.98 28 3.96 28 6 C20.74 6 13.48 6 6 6 C6 11.28 6 16.56 6 22 C13.26 22 20.52 22 28 22 C28 23.98 28 25.96 28 28 C20.74 28 13.48 28 6 28 C6 34.93 6 41.86 6 49 C13.26 49 20.52 49 28 49 C28 50.98 28 52.96 28 55 C18.76 55 9.52 55 0 55 C0 36.85 0 18.7 0 0 Z " fill="#D5960C" transform="translate(273,192)"/>
<path d="M0 0 C9.57 0 19.14 0 29 0 C29 1.98 29 3.96 29 6 C21.41 6 13.82 6 6 6 C6 11.28 6 16.56 6 22 C13.26 22 20.52 22 28 22 C28 23.65 28 25.3 28 27 C20.74 27 13.48 27 6 27 C6 34.26 6 41.52 6 49 C13.59 49 21.18 49 29 49 C29 50.98 29 52.96 29 55 C19.43 55 9.86 55 0 55 C0 36.85 0 18.7 0 0 Z " fill="#D5970F" transform="translate(175,192)"/>
<path d="M0 0 C0.66 0.33 1.32 0.66 2 1 C2 3.64 2 6.28 2 9 C1.37351563 8.65066406 0.74703125 8.30132812 0.1015625 7.94140625 C-1.12433594 7.25884766 -1.12433594 7.25884766 -2.375 6.5625 C-3.59316406 5.88380859 -3.59316406 5.88380859 -4.8359375 5.19140625 C-10.14494959 2.26857468 -15.23199311 2.32834102 -21.19140625 3.390625 C-27.92745466 5.44703117 -31.88905163 10.51234617 -35.4375 16.375 C-37.09065723 24.08973375 -36.27370612 29.95727329 -32.421875 36.87109375 C-30.59737152 39.60283659 -28.80529877 41.28945197 -26 43 C-24.6696875 43.86625 -24.6696875 43.86625 -23.3125 44.75 C-17.78138187 46.83721439 -12.7640157 47.07703964 -7.203125 44.91015625 C-4.7459818 43.68513544 -2.36763849 42.38871104 0 41 C0.66 40.67 1.32 40.34 2 40 C2.25 43.3125 2.25 43.3125 2 47 C-1.29497858 50.67516841 -6.30043492 51.81451447 -11.078125 52.3359375 C-20.38471637 52.45055069 -27.870555 51.23504759 -34.875 44.75 C-40.98279581 38.06599704 -43.35166283 30.77150585 -43.19921875 21.8359375 C-42.56595344 12.82121962 -37.54533921 6.97434031 -31 1 C-20.53901467 -5.88365356 -10.91656877 -5.22735697 0 0 Z " fill="#D5960C" transform="translate(47,195)"/>
<path d="M0 0 C0.79011475 0.00829834 1.58022949 0.01659668 2.39428711 0.02514648 C12.74522626 0.32410978 20.70664047 4.14704322 28.125 11.4375 C29.375 13.65625 29.375 13.65625 30.125 15.4375 C28.39692682 15.77645656 26.66748026 16.10841525 24.9375 16.4375 C23.97457031 16.623125 23.01164062 16.80875 22.01953125 17 C17.23550743 17.72309132 14.22431668 17.75382872 9.9375 15.4375 C4.93018147 13.11237697 0.58457043 12.53331247 -4.875 13.4375 C-7.2294478 14.38006133 -9.45445811 15.47726907 -11.72265625 16.609375 C-15.29648871 17.98442487 -18.2322718 17.22164893 -21.875 16.4375 C-23.37332285 16.23703828 -24.8733945 16.04917568 -26.375 15.875 C-27.53 15.730625 -28.685 15.58625 -29.875 15.4375 C-21.88428434 5.28080281 -13.13906018 -0.17875315 0 0 Z " fill="#2E5A91" transform="translate(152.875,30.5625)"/>
<path d="M0 0 C3.70390021 2.02666238 5.65363011 3.48044516 8 7 C8.68343706 10.77688904 8.85107095 14.47186889 6.94921875 17.88671875 C4.62594716 20.71713517 2.71847227 22.79405342 -0.98828125 23.23828125 C-5.05070018 23.36800555 -7.37166461 23.37432746 -10.9375 21.25 C-13.95236344 17.96105806 -14.83016289 16.12517087 -15.5 11.6875 C-14.83398123 6.77561156 -12.58855833 4.29106127 -9 1 C-5.89046621 -0.5547669 -3.43733239 -0.28644437 0 0 Z " fill="#2E5A91" transform="translate(222,38)"/>
<path d="M0 0 C4.54447291 1.9023375 6.71481238 4.68353449 9 9 C9.66954002 13.01724014 9.19231067 14.64285162 7.25 18.25 C4.66230849 21.41273406 2.83738502 22.68774315 -1.18359375 23.37109375 C-5.61365149 23.50161538 -7.3991145 23.47570102 -11 20.625 C-14.40927965 16.15032047 -14.70793456 12.5295429 -14 7 C-10.35267737 1.08882194 -6.87421525 -0.59260476 0 0 Z " fill="#2E5A91" transform="translate(91,38)"/>
<path d="M0 0 C3.33163575 0.70637352 5.09110679 1.96626467 7.33984375 4.49609375 C9.62664322 8.28360537 9.59701422 11.00640272 9.0234375 15.3046875 C7.84607207 19.07898469 5.59408212 20.37087686 2.33984375 22.49609375 C-0.52623754 23.92913439 -2.47316408 23.8025353 -5.66015625 23.49609375 C-8.66701499 21.87701597 -10.91826415 20.44032007 -13.03515625 17.74609375 C-14.26748168 13.30972222 -14.66555574 9.59793283 -12.66796875 5.421875 C-9.16532998 0.54390631 -5.90480486 -0.43509088 0 0 Z " fill="#2D5991" transform="translate(155.66015625,2.50390625)"/>
<path d="M0 0 C1.98 0 3.96 0 6 0 C6 16.17 6 32.34 6 49 C10.95 49 15.9 49 21 49 C21 50.98 21 52.96 21 55 C14.07 55 7.14 55 0 55 C0 36.85 0 18.7 0 0 Z " fill="#D5960D" transform="translate(148,192)"/>
<path d="M0 0 C1.98 0 3.96 0 6 0 C6 16.17 6 32.34 6 49 C10.95 49 15.9 49 21 49 C21 50.98 21 52.96 21 55 C14.07 55 7.14 55 0 55 C0 36.85 0 18.7 0 0 Z " fill="#D4950B" transform="translate(121,192)"/>
<path d="M0 0 C0.78761719 0.02578125 1.57523438 0.0515625 2.38671875 0.078125 C5.54886658 0.30809939 8.6244821 0.71799695 11.75 1.25 C11.75 1.91 11.75 2.57 11.75 3.25 C10.43 3.25 9.11 3.25 7.75 3.25 C7.6675 4.343125 7.585 5.43625 7.5 6.5625 C6.75 10.25 6.75 10.25 5.0625 12.125 C2.30215218 13.46787191 -0.21182759 13.90475314 -3.25 14.25 C-3.58 15.24 -3.91 16.23 -4.25 17.25 C-3.41855469 17.21519531 -2.58710938 17.18039062 -1.73046875 17.14453125 C-0.10044922 17.10392578 -0.10044922 17.10392578 1.5625 17.0625 C2.64144531 17.02769531 3.72039062 16.99289062 4.83203125 16.95703125 C7.75 17.25 7.75 17.25 9.63671875 18.546875 C10.75 20.25 10.75 20.25 10.75 23.6875 C9.75 27.25 9.75 27.25 7.8125 29.6875 C3.51972548 31.87769108 -0.50867589 31.94110826 -5.25 31.25 C-6.24 30.59 -7.23 29.93 -8.25 29.25 C-8.75500243 26.05165127 -8.52331609 24.6713623 -6.75 21.9375 C-6.255 21.380625 -5.76 20.82375 -5.25 20.25 C-6.24 19.59 -7.23 18.93 -8.25 18.25 C-7.755 17.3528125 -7.755 17.3528125 -7.25 16.4375 C-6.04212012 14.19613529 -6.04212012 14.19613529 -6.25 11.25 C-6.58 10.92 -6.91 10.59 -7.25 10.25 C-7.72078604 3.8943884 -7.72078604 3.8943884 -6 1.5390625 C-3.81812599 -0.06812148 -2.68477558 -0.09387327 0 0 Z " fill="#456C9D" transform="translate(203.25,293.75)"/>
<path d="M0 0 C0 10.56 0 21.12 0 32 C1.485 32.495 1.485 32.495 3 33 C0.35261084 34.4606285 -0.89448334 35 -4 35 C-4 34.34 -4 33.68 -4 33 C-4.99 33.495 -4.99 33.495 -6 34 C-13.24087591 34.58394161 -13.24087591 34.58394161 -16.4375 32.125 C-19.04966503 28.57245556 -19.5852125 26.43089462 -19 22 C-17.45482946 19.05709885 -15.73439367 16.90578953 -13 15 C-9.90721351 14.43173191 -7.10381434 14.56546599 -4 15 C-4.0721875 14.24074219 -4.144375 13.48148437 -4.21875 12.69921875 C-4.3115625 11.70535156 -4.404375 10.71148437 -4.5 9.6875 C-4.5928125 8.70136719 -4.685625 7.71523438 -4.78125 6.69921875 C-5 4 -5 4 -5 1 C-2 0 -2 0 0 0 Z " fill="#3F679A" transform="translate(299,279)"/>
<path d="M0 0 C3.34124083 1.59387813 5.32410271 3.64820541 7 7 C7.53118173 10.79415519 7.85089348 14.46331178 5.953125 17.890625 C4.17889137 20.0405787 2.50728754 21.74635623 0 23 C-2.6723621 23.13415472 -5.32250488 23.04318541 -8 23 C-8 21.68 -8 20.36 -8 19 C-8.9075 19.680625 -9.815 20.36125 -10.75 21.0625 C-14 23 -14 23 -16.375 22.75 C-16.91125 22.5025 -17.4475 22.255 -18 22 C-17.47616397 17.89542181 -16.34834816 15.78489488 -13.5625 12.75 C-12.94503906 12.06421875 -12.32757813 11.3784375 -11.69140625 10.671875 C-9.26345307 8.27195823 -8.35459252 8.00709185 -4.875 7.9375 C-3.92625 7.958125 -2.9775 7.97875 -2 8 C-2 7.34 -2 6.68 -2 6 C-1.34 6 -0.68 6 0 6 C-0.62678171 9.66172475 -1.64451846 12.8818995 -3.0625 16.3125 C-3.42472656 17.19550781 -3.78695313 18.07851563 -4.16015625 18.98828125 C-4.43730469 19.65214844 -4.71445312 20.31601562 -5 21 C0.40787385 19.90213575 0.40787385 19.90213575 4 16 C4.45745203 11.05951804 4.21323826 7.87804618 1 4 C-2.95335777 1.36442816 -7.08395663 1.82299458 -11.625 2.390625 C-15.89146603 3.48531036 -17.93403726 6.20707326 -20.10546875 9.859375 C-21.74128964 13.77391583 -21.43847958 17.83781695 -21 22 C-19.78397641 24.91845661 -18.94381039 26.36337318 -16.34375 28.1171875 C-13.08419833 29.34495196 -10.21977485 29.18925509 -6.75 29.125 C-4.85507812 29.09792969 -4.85507812 29.09792969 -2.921875 29.0703125 C-1.95765625 29.04710937 -0.9934375 29.02390625 0 29 C-4.01653437 32.55453864 -7.11364081 32.49780291 -12.3046875 32.359375 C-16.03134931 31.86248676 -18.19628539 30.45325028 -21 28 C-21.598125 27.484375 -22.19625 26.96875 -22.8125 26.4375 C-25.75043809 22.88104863 -25.44888508 18.24512262 -25.4140625 13.86328125 C-24.74140789 9.21181119 -22.40985119 6.1361755 -19 3 C-13.22732985 -1.28486856 -6.90638672 -0.88958143 0 0 Z " fill="#40689B" transform="translate(29,288)"/>
<path d="M0 0 C0.33 0.66 0.66 1.32 1 2 C1.66 1.67 2.32 1.34 3 1 C9.28375571 0.54299958 9.28375571 0.54299958 11.68359375 2.07421875 C13.66508557 4.972959 13.48864774 7.59269385 13.625 11.0625 C13.65282567 15.6958079 13.65282567 15.6958079 15 20 C12.03 20 9.06 20 6 20 C6.33 19.34 6.66 18.68 7 18 C7.66 18 8.32 18 9 18 C8.85970581 15.8537974 8.71261836 13.70803782 8.5625 11.5625 C8.48128906 10.36753906 8.40007812 9.17257812 8.31640625 7.94140625 C8.32343886 5.11429756 8.32343886 5.11429756 7 4 C4.5 3.83333333 4.5 3.83333333 2 4 C0.12175109 5.87824891 0.60897603 9.03935276 0.4375 11.5625 C0.31181641 13.35880859 0.31181641 13.35880859 0.18359375 15.19140625 C0.12300781 16.11824219 0.06242187 17.04507812 0 18 C0.99 18 1.98 18 3 18 C3 18.66 3 19.32 3 20 C-0.3 20 -3.6 20 -7 20 C-6.67 19.34 -6.34 18.68 -6 18 C-5.34 18 -4.68 18 -4 18 C-4.10699219 16.86820312 -4.21398437 15.73640625 -4.32421875 14.5703125 C-4.44613108 13.08860879 -4.56718016 11.60683388 -4.6875 10.125 C-4.76033203 9.37863281 -4.83316406 8.63226563 -4.90820312 7.86328125 C-5.07421875 5.6953125 -5.07421875 5.6953125 -5 2 C-2 0 -2 0 0 0 Z " fill="#446B9D" transform="translate(262,293)"/>
<path d="M0 0 C0 0.66 0 1.32 0 2 C0.66 1.67 1.32 1.34 2 1 C3.875 0.83203125 3.875 0.83203125 6 0.8125 C7.051875 0.79123047 7.051875 0.79123047 8.125 0.76953125 C10 1 10 1 12 3 C12.14497985 5.58064129 12.18677545 8.04943884 12.125 10.625 C12.11597656 11.33140625 12.10695312 12.0378125 12.09765625 12.765625 C12.07407603 14.51056098 12.03820461 16.25532295 12 18 C12.99 18 13.98 18 15 18 C15 18.66 15 19.32 15 20 C12.03 20 9.06 20 6 20 C6 19.34 6 18.68 6 18 C6.99 18 7.98 18 9 18 C8.85970581 15.8537974 8.71261836 13.70803782 8.5625 11.5625 C8.48128906 10.36753906 8.40007812 9.17257812 8.31640625 7.94140625 C8.32343886 5.11429756 8.32343886 5.11429756 7 4 C5.00041636 3.95919217 2.99954746 3.95745644 1 4 C0.97307516 6.29160319 0.95363876 8.58329546 0.9375 10.875 C0.92589844 12.15117187 0.91429687 13.42734375 0.90234375 14.7421875 C0.76823431 17.88664652 0.76823431 17.88664652 2 20 C-0.97 20 -3.94 20 -7 20 C-6.34 19.34 -5.68 18.68 -5 18 C-4.71770215 14.71130055 -4.71770215 14.71130055 -4.8125 11 C-4.82216797 9.1128125 -4.82216797 9.1128125 -4.83203125 7.1875 C-4.7816996 4.10366209 -4.7816996 4.10366209 -6 2 C-2.25 0 -2.25 0 0 0 Z " fill="#436B9C" transform="translate(177,293)"/>
<path d="M0 0 C0 0.66 0 1.32 0 2 C0.66 1.67 1.32 1.34 2 1 C3.875 0.83203125 3.875 0.83203125 6 0.8125 C7.051875 0.79123047 7.051875 0.79123047 8.125 0.76953125 C10 1 10 1 12 3 C12.14497985 5.58064129 12.18677545 8.04943884 12.125 10.625 C12.11597656 11.33140625 12.10695312 12.0378125 12.09765625 12.765625 C12.07407603 14.51056098 12.03820461 16.25532295 12 18 C12.99 18 13.98 18 15 18 C15 18.66 15 19.32 15 20 C12.03 20 9.06 20 6 20 C6 19.34 6 18.68 6 18 C6.99 18 7.98 18 9 18 C8.85970581 15.8537974 8.71261836 13.70803782 8.5625 11.5625 C8.48128906 10.36753906 8.40007812 9.17257812 8.31640625 7.94140625 C8.32343886 5.11429756 8.32343886 5.11429756 7 4 C5.00041636 3.95919217 2.99954746 3.95745644 1 4 C0.97307516 6.29160319 0.95363876 8.58329546 0.9375 10.875 C0.92589844 12.15117187 0.91429687 13.42734375 0.90234375 14.7421875 C0.76823431 17.88664652 0.76823431 17.88664652 2 20 C-0.97 20 -3.94 20 -7 20 C-6.34 19.34 -5.68 18.68 -5 18 C-4.71770215 14.71130055 -4.71770215 14.71130055 -4.8125 11 C-4.82216797 9.1128125 -4.82216797 9.1128125 -4.83203125 7.1875 C-4.7816996 4.10366209 -4.7816996 4.10366209 -6 2 C-2.25 0 -2.25 0 0 0 Z " fill="#436B9C" transform="translate(128,293)"/>
<path d="M0 0 C0.66 0 1.32 0 2 0 C1.34309381 3.78239671 0.279869 7.21841526 -1.0625 10.8125 C-1.42472656 11.78832031 -1.78695313 12.76414062 -2.16015625 13.76953125 C-2.43730469 14.50558594 -2.71445312 15.24164063 -3 16 C-2.01 16.33 -1.02 16.66 0 17 C-1.98 17 -3.96 17 -6 17 C-6 15.68 -6 14.36 -6 13 C-6.9075 13.680625 -7.815 14.36125 -8.75 15.0625 C-12 17 -12 17 -14.375 16.75 C-14.91125 16.5025 -15.4475 16.255 -16 16 C-15.47616397 11.89542181 -14.34834816 9.78489488 -11.5625 6.75 C-10.94503906 6.06421875 -10.32757812 5.3784375 -9.69140625 4.671875 C-7.26345307 2.27195823 -6.35459252 2.00709185 -2.875 1.9375 C-1.92625 1.958125 -0.9775 1.97875 0 2 C0 1.34 0 0.68 0 0 Z " fill="#41699B" transform="translate(27,294)"/>
<path d="M0 0 C1.65 0 3.3 0 5 0 C5.06058594 1.07121094 5.12117187 2.14242188 5.18359375 3.24609375 C5.26798537 4.64324391 5.35263406 6.04037857 5.4375 7.4375 C5.47681641 8.14455078 5.51613281 8.85160156 5.55664062 9.58007812 C5.47624438 13.08690419 5.47624438 13.08690419 7 16 C9.31 16 11.62 16 14 16 C14 11.38 14 6.76 14 2 C13.34 2 12.68 2 12 2 C12 1.34 12 0.68 12 0 C13.98 0 15.96 0 18 0 C18 5.61 18 11.22 18 17 C18.99 17.33 19.98 17.66 21 18 C18.69 18.66 16.38 19.32 14 20 C13.67 19.34 13.34 18.68 13 18 C12.34 18.33 11.68 18.66 11 19 C7.5 19.1875 7.5 19.1875 4 19 C1.16778292 16.16778292 1.62897528 14.01014994 1.4375 10.0625 C1.20155421 4.94114435 1.20155421 4.94114435 0 0 Z " fill="#41699B" transform="translate(232,294)"/>
<path d="M0 0 C1.051875 -0.02126953 1.051875 -0.02126953 2.125 -0.04296875 C4 0.1875 4 0.1875 6 2.1875 C6 3.8375 6 5.4875 6 7.1875 C2.04 7.1875 -1.92 7.1875 -6 7.1875 C-4.90213575 12.59537385 -4.90213575 12.59537385 -1 16.1875 C2.63939932 15.87019476 2.63939932 15.87019476 6 15.1875 C5 18.1875 5 18.1875 3 19.1875 C-0.01165884 19.53310019 -2.094098 19.77090289 -5 19.1875 C-8.26476465 16.33083093 -9.75982857 14.46841429 -10.5625 10.1875 C-9.85564296 6.41759581 -8.364441 4.17782245 -6 1.1875 C-3.77109005 0.07304502 -2.46944894 0.02269714 0 0 Z " fill="#5A7CA8" transform="translate(112,293.8125)"/>
<path d="M0 0 C2 2 2 2 2.23046875 5.00390625 C2.20919922 6.76541016 2.20919922 6.76541016 2.1875 8.5625 C2.17783203 10.32787109 2.17783203 10.32787109 2.16796875 12.12890625 C2 15 2 15 1 16 C-1.8125 16.375 -1.8125 16.375 -5 16 C-8.16196359 13.25408425 -8.91691332 11.59199258 -9.5 7.4375 C-9 4 -9 4 -7.3125 1.5625 C-4.57791039 -0.28519568 -3.23581461 -0.5109181 0 0 Z " fill="#F8F9FB" transform="translate(293,295)"/>
<path d="M0 0 C0.66 0 1.32 0 2 0 C2 0.99 2 1.98 2 3 C3.98 3 5.96 3 8 3 C8 3.66 8 4.32 8 5 C6.02 5 4.04 5 2 5 C2.33 9.62 2.66 14.24 3 19 C4.65 19 6.3 19 8 19 C8 19.66 8 20.32 8 21 C5.23749964 22.38125018 3.05268901 22.19079306 0 22 C-2 20 -2 20 -2.1953125 16.5234375 C-2.18201493 15.14049032 -2.15816232 13.75761346 -2.125 12.375 C-2.11597656 11.66859375 -2.10695312 10.9621875 -2.09765625 10.234375 C-2.07407603 8.48943902 -2.03820461 6.74467705 -2 5 C-2.66 4.67 -3.32 4.34 -4 4 C-3.01 3.67 -2.02 3.34 -1 3 C-0.67 2.01 -0.34 1.02 0 0 Z " fill="#D79D1C" transform="translate(44,291)"/>
<path d="M0 0 C0.91007812 0.00902344 1.82015625 0.01804687 2.7578125 0.02734375 C3.45648438 0.03894531 4.15515625 0.05054688 4.875 0.0625 C4.545 1.3825 4.215 2.7025 3.875 4.0625 C2.885 3.4025 1.895 2.7425 0.875 2.0625 C-2.95248905 2.24482592 -2.95248905 2.24482592 -6.125 4.0625 C-6.62077051 8.14244744 -7.06260946 11.83639532 -4.5 15.1875 C-1.34817936 16.34869708 0.65981316 15.90124439 3.875 15.0625 C4.535 14.7325 5.195 14.4025 5.875 14.0625 C4.125 17.9375 4.125 17.9375 1.875 19.0625 C-5.36587591 19.64644161 -5.36587591 19.64644161 -8.5625 17.1875 C-11.37454066 13.36312471 -11.52832315 10.82171314 -11.125 6.0625 C-7.83836921 1.02299945 -5.86190884 -0.07515268 0 0 Z " fill="#D79B19" transform="translate(65.125,293.9375)"/>
<path d="M0 0 C0 0.99 0 1.98 0 3 C1.98 3 3.96 3 6 3 C6 3.66 6 4.32 6 5 C4.02 5 2.04 5 0 5 C0.33 9.62 0.66 14.24 1 19 C2.65 19.33 4.3 19.66 6 20 C5.67 20.66 5.34 21.32 5 22 C1.625 22.125 1.625 22.125 -2 22 C-4 20 -4 20 -4.1953125 16.5234375 C-4.18201493 15.14049032 -4.15816232 13.75761346 -4.125 12.375 C-4.11597656 11.66859375 -4.10695313 10.9621875 -4.09765625 10.234375 C-4.07407603 8.48943902 -4.03820461 6.74467705 -4 5 C-4.66 4.67 -5.32 4.34 -6 4 C-2.25 0 -2.25 0 0 0 Z " fill="#3E679A" transform="translate(94,291)"/>
<path d="M0 0 C2.01822917 0.06510417 4.03645833 0.13020833 6.0546875 0.1953125 C5.7246875 1.5153125 5.3946875 2.8353125 5.0546875 4.1953125 C4.3946875 3.5353125 3.7346875 2.8753125 3.0546875 2.1953125 C1.7346875 2.1953125 0.4146875 2.1953125 -0.9453125 2.1953125 C-0.89762847 4.07412122 -0.89762847 4.07412122 0.0546875 6.1953125 C1.5396875 7.1234375 1.5396875 7.1234375 3.0546875 8.0703125 C6.0546875 10.1953125 6.0546875 10.1953125 7.1171875 13.2578125 C7.0546875 16.1953125 7.0546875 16.1953125 6.1171875 18.0703125 C2.72515229 19.92051353 -0.11522848 19.49928742 -3.9453125 19.1953125 C-4.6053125 18.5353125 -5.2653125 17.8753125 -5.9453125 17.1953125 C-5.9453125 15.8753125 -5.9453125 14.5553125 -5.9453125 13.1953125 C-5.2853125 13.1953125 -4.6253125 13.1953125 -3.9453125 13.1953125 C-3.2853125 14.5153125 -2.6253125 15.8353125 -1.9453125 17.1953125 C-0.6253125 17.1953125 0.6946875 17.1953125 2.0546875 17.1953125 C1.89986955 14.48599831 1.57296669 12.72947211 -0.34765625 10.75 C-1.84302958 9.51851608 -3.3916049 8.3523288 -4.9453125 7.1953125 C-3.87057023 0.38861147 -3.87057023 0.38861147 0 0 Z " fill="#3E669A" transform="translate(77.9453125,293.8046875)"/>
<path d="M0 0 C0.70125 0.00515625 1.4025 0.0103125 2.125 0.015625 C2.82625 0.01046875 3.5275 0.0053125 4.25 0 C6.125 0.265625 6.125 0.265625 8.125 2.265625 C8.375 4.765625 8.375 4.765625 8.125 7.265625 C6.125 9.265625 6.125 9.265625 4.03125 9.53125 C3.2371875 9.52609375 2.443125 9.5209375 1.625 9.515625 C0.8309375 9.52078125 0.036875 9.5259375 -0.78125 9.53125 C-2.875 9.265625 -2.875 9.265625 -4.875 7.265625 C-4.51537953 3.66942029 -4.09892265 0.58068071 0 0 Z " fill="#F2F5F8" transform="translate(202.875,313.734375)"/>
<path d="M0 0 C2.01822917 0.06510417 4.03645833 0.13020833 6.0546875 0.1953125 C6.3846875 1.5153125 6.7146875 2.8353125 7.0546875 4.1953125 C6.0646875 3.5353125 5.0746875 2.8753125 4.0546875 2.1953125 C2.7346875 2.1953125 1.4146875 2.1953125 0.0546875 2.1953125 C-0.2753125 3.5153125 -0.6053125 4.8353125 -0.9453125 6.1953125 C-0.1821875 6.4634375 0.5809375 6.7315625 1.3671875 7.0078125 C5.6226433 8.88813018 5.6226433 8.88813018 7.0546875 11.1953125 C6.8671875 14.8203125 6.8671875 14.8203125 6.0546875 18.1953125 C2.80165706 19.82182772 -0.33756852 19.30984406 -3.9453125 19.1953125 C-4.9453125 18.1953125 -4.9453125 18.1953125 -5.0078125 15.6328125 C-4.9871875 14.8284375 -4.9665625 14.0240625 -4.9453125 13.1953125 C-4.3678125 13.8553125 -3.7903125 14.5153125 -3.1953125 15.1953125 C-0.94877273 17.63822173 -0.94877273 17.63822173 3.0546875 17.1953125 C2.94127216 14.78653993 2.94127216 14.78653993 2.0546875 12.1953125 C1.2296875 11.7415625 0.4046875 11.2878125 -0.4453125 10.8203125 C-2.9453125 9.1953125 -2.9453125 9.1953125 -3.8828125 5.6328125 C-3.9034375 4.4984375 -3.9240625 3.3640625 -3.9453125 2.1953125 C-1.9453125 0.1953125 -1.9453125 0.1953125 0 0 Z " fill="#356095" transform="translate(220.9453125,293.8046875)"/>
<path d="M0 0 C1.98 0 3.96 0 6 0 C6.33 5.28 6.66 10.56 7 16 C8.98 16.33 10.96 16.66 13 17 C12.67 17.66 12.34 18.32 12 19 C10.72125 19.061875 9.4425 19.12375 8.125 19.1875 C7.04605469 19.23970703 7.04605469 19.23970703 5.9453125 19.29296875 C5.30335938 19.19628906 4.66140625 19.09960938 4 19 C1.50881047 15.2632157 1.7934774 13.25548181 1.875 8.8125 C1.89304688 7.54019531 1.91109375 6.26789063 1.9296875 4.95703125 C1.95289063 3.98121094 1.97609375 3.00539063 2 2 C1.34 2 0.68 2 0 2 C0 1.34 0 0.68 0 0 Z " fill="#3F679A" transform="translate(146,294)"/>
<path d="M0 0 C2.875 -0.125 2.875 -0.125 6 0 C8 2 8 2 8.1953125 5.4765625 C8.18201493 6.85950968 8.15816232 8.24238654 8.125 9.625 C8.11597656 10.33140625 8.10695312 11.0378125 8.09765625 11.765625 C8.07407603 13.51056098 8.03820461 15.25532295 8 17 C8.99 17 9.98 17 11 17 C11 17.66 11 18.32 11 19 C8.03 19 5.06 19 2 19 C2 18.34 2 17.68 2 17 C2.99 17 3.98 17 5 17 C4.93976506 14.91587093 4.85091679 12.83255565 4.75 10.75 C4.70359375 9.58984375 4.6571875 8.4296875 4.609375 7.234375 C3.91208725 3.53338618 2.88214816 2.32877571 0 0 Z " fill="#356095" transform="translate(181,294)"/>
<path d="M0 0 C2.875 -0.125 2.875 -0.125 6 0 C8 2 8 2 8.1953125 5.4765625 C8.18201493 6.85950968 8.15816232 8.24238654 8.125 9.625 C8.11597656 10.33140625 8.10695312 11.0378125 8.09765625 11.765625 C8.07407603 13.51056098 8.03820461 15.25532295 8 17 C8.99 17 9.98 17 11 17 C11 17.66 11 18.32 11 19 C8.03 19 5.06 19 2 19 C2 18.34 2 17.68 2 17 C2.99 17 3.98 17 5 17 C4.93976506 14.91587093 4.85091679 12.83255565 4.75 10.75 C4.70359375 9.58984375 4.6571875 8.4296875 4.609375 7.234375 C3.91208725 3.53338618 2.88214816 2.32877571 0 0 Z " fill="#356095" transform="translate(132,294)"/>
<path d="M0 0 C1.65 0 3.3 0 5 0 C5.03738281 1.13179688 5.07476562 2.26359375 5.11328125 3.4296875 C5.17893082 4.91149205 5.24537851 6.39326139 5.3125 7.875 C5.33505859 8.62136719 5.35761719 9.36773437 5.38085938 10.13671875 C5.47811945 12.099604 5.73042294 14.05328322 6 16 C6.99 16.66 7.98 17.32 9 18 C6.69 18.66 4.38 19.32 2 20 C2 19.01 2 18.02 2 17 C1.34 16.67 0.68 16.34 0 16 C0.33 15.67 0.66 15.34 1 15 C1.23481693 12.81707226 1.41363323 10.62796826 1.5625 8.4375 C1.64628906 7.23996094 1.73007813 6.04242188 1.81640625 4.80859375 C1.87699219 3.88175781 1.93757812 2.95492188 2 2 C1.34 2 0.68 2 0 2 C0 1.34 0 0.68 0 0 Z " fill="#305C93" transform="translate(159,294)"/>
<path d="M0 0 C1.65 0 3.3 0 5 0 C5.02578125 1.03640625 5.0515625 2.0728125 5.078125 3.140625 C5.13441951 4.51045801 5.19176655 5.88024805 5.25 7.25 C5.26417969 7.93191406 5.27835938 8.61382812 5.29296875 9.31640625 C5.46552777 12.87112206 5.7545897 14.70213559 8.046875 17.484375 C8.69140625 17.98453125 9.3359375 18.4846875 10 19 C7.125 19.125 7.125 19.125 4 19 C1.16778292 16.16778292 1.62897528 14.01014994 1.4375 10.0625 C1.20155421 4.94114435 1.20155421 4.94114435 0 0 Z " fill="#2D5991" transform="translate(232,294)"/>
<path d="M0 0 C4.55555556 0.55555556 4.55555556 0.55555556 6 2 C6.125 5.5 6.125 5.5 6 9 C5 10 5 10 2.5625 10.25 C1.716875 10.1675 0.87125 10.085 0 10 C-2.14915785 6.77626323 -2.38286803 5.73296326 -2 2 C-1.34 1.34 -0.68 0.68 0 0 Z " fill="#F5F7F9" transform="translate(201,295)"/>
<path d="M0 0 C0.268125 0.556875 0.53625 1.11375 0.8125 1.6875 C1.204375 2.450625 1.59625 3.21375 2 4 C2.61875 5.3303125 2.61875 5.3303125 3.25 6.6875 C4.85028875 9.27998124 4.85028875 9.27998124 8 9.875 C11.05183614 10.1801923 11.05183614 10.1801923 14 9 C13 12 13 12 11 13 C7.98834116 13.34560019 5.905902 13.58340289 3 13 C-0.47568903 9.9587721 -1.88360015 8.25711841 -2.3125 3.625 C-2.209375 2.75875 -2.10625 1.8925 -2 1 C-1.34 0.67 -0.68 0.34 0 0 Z " fill="#3C6599" transform="translate(104,300)"/>
<path d="M0 0 C5.45769811 -0.11138159 10.61509359 0.08342019 16 1 C16 1.66 16 2.32 16 3 C14.68 3 13.36 3 12 3 C11.938125 4.093125 11.87625 5.18625 11.8125 6.3125 C11 10 11 10 8.4375 11.9375 C7.633125 12.288125 6.82875 12.63875 6 13 C5.01 12.34 4.02 11.68 3 11 C4.32 10.67 5.64 10.34 7 10 C7 7.69 7 5.38 7 3 C5.824375 2.814375 5.824375 2.814375 4.625 2.625 C2 2 2 2 0 0 Z " fill="#476D9E" transform="translate(199,294)"/>
<path d="M0 0 C4.42759127 1.35287511 6.67870984 2.95923565 9 7 C9.76842681 10.85636418 9.87293995 14.34037899 8.01171875 17.87890625 C6.24315337 20.15121162 4.48578415 21.77139569 1.875 23 C0 23 0 23 -3 21 C-1.88625 20.731875 -0.7725 20.46375 0.375 20.1875 C4.21840951 19.34190981 4.21840951 19.34190981 6 16 C6.45745203 11.05951804 6.21323826 7.87804618 3 4 C0.42900598 2.65310085 0.42900598 2.65310085 -2 2 C-1.34 1.34 -0.68 0.68 0 0 Z " fill="#4B71A0" transform="translate(27,288)"/>
<path d="M0 0 C0.721875 0.144375 1.44375 0.28875 2.1875 0.4375 C0.78678507 5.72908974 -2.66737245 8.21228044 -6.8125 11.4375 C-7.67145022 9.04092283 -8.01024673 7.90079234 -6.9921875 5.515625 C-3.43743323 0.53471184 -3.43743323 0.53471184 0 0 Z " fill="#EDF1F6" transform="translate(22.8125,297.5625)"/>
<path d="M0 0 C0.66 0 1.32 0 2 0 C1.95875 1.093125 1.9175 2.18625 1.875 3.3125 C1.67925334 7.08892229 1.67925334 7.08892229 4 10 C4.99 10.66 5.98 11.32 7 12 C1.63157895 12.35789474 1.63157895 12.35789474 -0.875 10.9375 C-2.61973477 7.93267901 -2.30835443 5.39189869 -2 2 C-1.34 1.34 -0.68 0.68 0 0 Z " fill="#305B92" transform="translate(198,295)"/>
<path d="M0 0 C0.33 0 0.66 0 1 0 C1.309375 1.423125 1.309375 1.423125 1.625 2.875 C2.70833333 6.29166667 2.70833333 6.29166667 6.125 7.375 C7.07375 7.58125 8.0225 7.7875 9 8 C9 8.33 9 8.66 9 9 C7.741875 9.04125 6.48375 9.0825 5.1875 9.125 C4.47980469 9.14820313 3.77210938 9.17140625 3.04296875 9.1953125 C1 9 1 9 -2 7 C-2.3125 4.5 -2.3125 4.5 -2 2 C-1.34 1.34 -0.68 0.68 0 0 Z " fill="#305B92" transform="translate(197,316)"/>
<path d="M0 0 C0.66 0 1.32 0 2 0 C2.33 1.32 2.66 2.64 3 4 C4.98 2.68 6.96 1.36 9 0 C7.55373881 3.81287042 5.69805188 5.32707177 2 7 C-0.3125 6.6875 -0.3125 6.6875 -2 6 C-1.125 1.125 -1.125 1.125 0 0 Z " fill="#446B9D" transform="translate(13,304)"/>
<path d="M0 0 C1.25541557 3.76624671 0.37061958 5.37188934 -1 9 C-0.01 9.33 0.98 9.66 2 10 C0.02 10 -1.96 10 -4 10 C-3.51171875 3.9453125 -3.51171875 3.9453125 -3 2 C-2.01 1.34 -1.02 0.68 0 0 Z " fill="#325D94" transform="translate(25,301)"/>
<path d="M0 0 C0.763125 0.0825 1.52625 0.165 2.3125 0.25 C2.6425 1.57 2.9725 2.89 3.3125 4.25 C0.3425 4.25 -2.6275 4.25 -5.6875 4.25 C-3.34903846 0.31153846 -3.34903846 0.31153846 0 0 Z " fill="#F1F4F8" transform="translate(111.6875,294.75)"/>
<path d="M0 0 C0.66 0 1.32 0 2 0 C2.66 1.32 3.32 2.64 4 4 C5.32 4 6.64 4 8 4 C8.66 3.01 9.32 2.02 10 1 C10.5625 2.9375 10.5625 2.9375 11 5 C9.10511048 6.89488952 6.42860854 6.18019112 3.91015625 6.23046875 C2 6 2 6 0 4 C0 2.68 0 1.36 0 0 Z " fill="#4C72A1" transform="translate(72,307)"/>
<path d="M0 0 C6.0546875 -0.1953125 6.0546875 -0.1953125 8 0 C10 2 10 2 10 6 C8.35 6 6.7 6 5 6 C5.66 5.67 6.32 5.34 7 5 C6.67 4.01 6.34 3.02 6 2 C3.03 1.505 3.03 1.505 0 1 C0 0.67 0 0.34 0 0 Z " fill="#335E94" transform="translate(108,294)"/>
<path d="M0 0 C3.37503669 1.1858237 5.64722731 2.27573689 8 5 C7.34 6.32 6.68 7.64 6 9 C5.4121875 7.824375 5.4121875 7.824375 4.8125 6.625 C2.75725331 3.64843582 1.40320742 3.01176437 -2 2 C-1.34 1.34 -0.68 0.68 0 0 Z " fill="#577AA7" transform="translate(27,288)"/>
<path d="M0 0 C2.64 0 5.28 0 8 0 C8.33 1.32 8.66 2.64 9 4 C8.01 3.34 7.02 2.68 6 2 C4.68 2 3.36 2 2 2 C1.01 3.485 1.01 3.485 0 5 C-0.66 4.67 -1.32 4.34 -2 4 C-1.34 2.68 -0.68 1.36 0 0 Z " fill="#3D6699" transform="translate(219,294)"/>
</svg>
